HIERARCHY
ROOT Hips
{
	OFFSET	0.000000	0.000000	0.000000
	CHANNELS 6 Xposition Yposition Zposition Zrotation Xrotation Yrotation
	JOINT LeftHip
	{
		OFFSET	4.740440	-3.195970	-0.322709
		CHANNELS 3 Zrotation Xrotation Yrotation
		JOINT LeftKnee
		{
			OFFSET	-1.605680	-15.592300	1.005510
			CHANNELS 3 Zrotation Xrotation Yrotation
			JOINT LeftAnkle
			{
				OFFSET	-0.632401	-16.421000	-1.413730
				CHANNELS 3 Zrotation Xrotation Yrotation
				End Site
				{
					OFFSET	0.008423	-2.933000	-1.684880
				}
			}
		}
	}
	JOINT RightHip
	{
		OFFSET	-4.740440	-3.195970	-0.322709
		CHANNELS 3 Zrotation Xrotation Yrotation
		JOINT RightKnee
		{
			OFFSET	1.605680	-15.592300	1.005510
			CHANNELS 3 Zrotation Xrotation Yrotation
			JOINT RightAnkle
			{
				OFFSET	0.632401	-16.421000	-1.413730
				CHANNELS 3 Zrotation Xrotation Yrotation
				End Site
				{
					OFFSET	-0.008423	-2.933000	-1.684880
				}
			}
		}
	}
	JOINT Chest
	{
		OFFSET	0.000000	3.468200	0.078401
		CHANNELS 3 Zrotation Xrotation Yrotation
		JOINT LeftCollar
		{
			OFFSET	3.857650	15.070700	-0.011583
			CHANNELS 3 Zrotation Xrotation Yrotation
			JOINT LeftShoulder
			{
				OFFSET	3.979720	-1.940530	-0.165223
				CHANNELS 3 Zrotation Xrotation Yrotation
				JOINT LeftElbow
				{
					OFFSET	0.615844	-10.986600	-0.673886
					CHANNELS 3 Zrotation Xrotation Yrotation
					JOINT LeftWrist
					{
						OFFSET	0.826843	-10.854500	1.034220
						CHANNELS 3 Zrotation Xrotation Yrotation
						End Site
						{
							OFFSET	-1.679080	-8.456540	0.936217
						}
					}
				}
			}
		}
		JOINT RightCollar
		{
			OFFSET	-3.857650	15.070700	-0.011583
			CHANNELS 3 Zrotation Xrotation Yrotation
			JOINT RightShoulder
			{
				OFFSET	-3.979720	-1.940530	-0.165223
				CHANNELS 3 Zrotation Xrotation Yrotation
				JOINT RightElbow
				{
					OFFSET	-0.615845	-10.986600	-0.673886
					CHANNELS 3 Zrotation Xrotation Yrotation
					JOINT RightWrist
					{
						OFFSET	-0.826843	-10.854500	1.034220
						CHANNELS 3 Zrotation Xrotation Yrotation
						End Site
						{
							OFFSET	1.679080	-8.456540	0.936217
						}
					}
				}
			}
		}
		JOINT Neck
		{
			OFFSET	0.000000	15.101400	0.055730
			CHANNELS 3 Zrotation Xrotation Yrotation
			JOINT Head
			{
				OFFSET	0.000000	4.185120	1.488260
				CHANNELS 3 Zrotation Xrotation Yrotation
				End Site
				{
					OFFSET	0.000000	7.773420	-0.106016
				}
			}
		}
	}
}
MOTION
Frames:    8
Frame Time: 0.016667
-14.228519	37.867378	82.308830	-1.285897	-10.897955	-21.000694	-1.728646	8.617301	0.984805	-3.794712	4.510711	13.195801	6.031064	-6.349873	9.693358	-15.370627	-3.420341	-6.367388	7.974056	24.679510	-0.550959	3.009058	-9.561469	2.193181	-7.251912	7.716330	0.801701	-2.467786	-6.224764	-2.248400	4.629412	-12.201171	0.325874	30.900251	-146.953659	60.778229	28.307369	-23.142458	-19.526585	-0.573105	1.636694	-8.659952	0.107573	3.939892	-10.356659	-12.927402	-66.500023	-28.025072	0.305537	17.447397	-7.348320	-0.616126	21.533749	-12.532428	-6.600817	13.092997	6.715618	
-14.229347	37.867001	82.309914	-1.278961	-10.899834	-20.987278	-1.733658	8.617843	0.974563	-3.794743	4.509985	13.193696	6.031064	-6.349873	9.693358	-15.378369	-3.417794	-6.379264	7.985486	24.673414	-0.547525	2.997182	-9.555912	2.184553	-7.257306	7.717175	0.789495	-2.471309	-6.232502	-2.213089	4.632912	-12.224816	0.315159	30.897682	-146.954666	60.811443	28.264963	-23.114811	-19.539030	-0.649388	1.628448	-8.563459	0.263194	3.985062	-10.367111	-12.981729	-67.350006	-28.106823	0.056863	16.924337	-8.359786	-0.639627	21.516375	-12.475089	-6.574116	13.109871	6.667069	
-14.232767	37.867958	82.301796	-1.257918	-10.905517	-20.946615	-1.745063	8.629602	0.978971	-3.784097	4.458241	13.159968	6.027524	-6.307708	9.678480	-15.380408	-3.420655	-6.385100	8.006729	24.660324	-0.557796	2.963701	-9.540889	2.148256	-7.266310	7.723965	0.766388	-2.476193	-6.279639	-2.126435	4.620904	-12.276443	0.241739	30.878298	-146.943222	60.850697	28.089109	-22.995876	-19.584454	-0.685742	1.621083	-8.540566	0.489787	3.944413	-10.119149	-13.482579	-69.867271	-28.603304	-0.688412	15.186673	-11.734532	-0.672504	21.471992	-12.302547	-6.517790	13.154343	6.488764	
-14.233585	37.868633	82.296341	-1.250440	-10.907533	-20.932182	-1.749363	8.633160	0.978261	-3.777874	4.431874	13.152343	6.025536	-6.284243	9.670097	-15.380817	-3.422876	-6.382045	8.005750	24.661160	-0.562887	2.961430	-9.540493	2.135690	-7.264013	7.729524	0.768542	-2.478918	-6.301795	-2.122490	4.615283	-12.286682	0.240436	30.860725	-146.934738	60.844151	28.032211	-22.945013	-19.556126	-0.725737	1.613092	-8.516107	0.589584	3.920452	-10.076705	-13.739745	-70.708916	-28.866825	-0.971840	14.551052	-12.879116	-0.657276	21.459417	-12.288369	-6.501652	13.254001	6.441434	
-14.236916	37.870155	82.294991	-1.241384	-10.903586	-20.881935	-1.744981	8.639346	0.966105	-3.772497	4.399993	13.119238	6.023563	-6.261236	9.661699	-15.367108	-3.434027	-6.371967	8.003599	24.666729	-0.588601	2.958685	-9.541403	2.097745	-7.243634	7.740675	0.757967	-2.487669	-6.353612	-2.117576	4.606823	-12.324181	0.252662	30.805155	-146.892242	60.828949	27.903725	-22.825638	-19.522287	-0.821569	1.593096	-8.460312	0.840790	3.638885	-9.950071	-14.333381	-73.031113	-29.562159	-2.233357	12.274403	-16.588751	-0.630061	21.519615	-12.337836	-6.351257	13.665530	6.392204	
-14.237738	37.870674	82.291351	-1.235281	-10.904787	-20.867846	-1.747915	8.642109	0.963786	-3.768020	4.380255	13.111779	6.022143	-6.244027	9.655725	-15.364591	-3.438200	-6.362615	8.002425	24.668877	-0.599286	2.957720	-9.541723	2.084468	-7.247089	7.741764	0.746427	-2.483481	-6.367173	-2.104431	4.605412	-12.330895	0.266522	30.814655	-146.886871	60.865894	27.852098	-22.807951	-19.505367	-0.849527	1.589459	-8.427521	0.917611	3.513861	-9.885211	-14.603711	-73.749374	-29.958796	-2.729011	11.441347	-17.879807	-0.625904	21.563919	-12.335536	-6.290406	13.836925	6.370208	
-14.238033	37.873062	82.275230	-1.221955	-10.905704	-20.828224	-1.753776	8.642796	0.936389	-3.749792	4.311671	13.116118	6.016582	-6.177711	9.632154	-15.366505	-3.441634	-6.366593	7.999402	24.671350	-0.592149	2.954656	-9.542721	2.042334	-7.254577	7.742678	0.708805	-2.487989	-6.413689	-2.050976	4.611502	-12.283809	0.298269	30.777342	-146.884033	60.911621	27.739708	-22.639336	-19.437349	-0.979493	1.550347	-8.331205	1.153282	3.090064	-9.660273	-16.431461	-75.724037	-32.510483	-3.941166	9.517570	-21.770237	-0.491757	21.798918	-12.403743	-6.155814	14.352150	6.366297	
-14.238543	37.872910	82.275291	-1.216361	-10.906782	-20.815214	-1.757471	8.642219	0.924272	-3.748934	4.308647	13.116952	6.016303	-6.174682	9.630926	-15.372729	-3.439375	-6.378394	7.997948	24.670990	-0.577744	2.953654	-9.543062	2.028343	-7.242692	7.724981	0.692103	-2.523807	-6.410601	-2.027867	4.627418	-12.269324	0.279232	30.666471	-146.802658	60.849697	27.590611	-22.535328	-19.425274	-1.030231	1.507223	-8.290408	1.229288	2.946190	-9.580345	-17.551863	-76.285896	-33.903572	-4.275645	9.118837	-22.910439	-0.358270	22.016523	-12.487511	-6.151584	14.412252	6.400468	
